<svg width="18" height="25" viewBox="0 0 18 25" fill="none" xmlns="http://www.w3.org/2000/svg">
<path fill-rule="evenodd" clip-rule="evenodd" d="M-2.95639e-05 12.8072C-2.95639e-05 6.18014 5.37229 0.807825 11.9994 0.807825C11.9997 0.807825 12 0.808104 12 0.808447V2.2478C12 2.24788 11.9999 2.24795 11.9999 2.24795C6.16802 2.24795 1.44038 6.97559 1.44038 12.8074C1.44038 18.6393 6.16802 23.3669 11.9999 23.3669C11.9999 23.3669 12 23.367 12 23.367V24.806C12 24.8064 11.9997 24.8066 11.9994 24.8066C5.37229 24.8066 -2.95639e-05 19.4343 -2.95639e-05 12.8072Z" fill="#5570FF"/>
<path d="M17.7926 13.4983L13.5341 17.7938C13.3973 17.9313 13.2262 18 13.0552 18C12.8842 18 12.7132 17.9313 12.5764 17.7938C12.3027 17.5189 12.3027 17.0893 12.5764 16.8144L15.6719 13.6873H5.6841C5.30784 13.6873 5 13.378 5 13C5 12.622 5.30784 12.3127 5.6841 12.3127H15.6719L12.5764 9.18557C12.3027 8.91065 12.3027 8.4811 12.5764 8.20619C12.85 7.93127 13.2776 7.93127 13.5512 8.20619L17.8097 12.5017C18.0662 12.7938 18.0662 13.2405 17.7926 13.4983Z" fill="#5570FF"/>
</svg>
