<svg width="28" height="33" viewBox="0 0 28 33" fill="none" xmlns="http://www.w3.org/2000/svg">
<path d="M22.2743 24.0896H20.7743C20.7743 24.918 21.4459 25.5896 22.2743 25.5896V24.0896ZM22.2746 24.0896L23.4303 23.1334C23.1453 22.789 22.7216 22.5896 22.2746 22.5896V24.0896ZM25.6537 28.1735V29.6735C26.2348 29.6735 26.7636 29.3379 27.011 28.8121C27.2584 28.2864 27.1798 27.665 26.8094 27.2173L25.6537 28.1735ZM2 28.1735L0.844313 27.2173C0.473881 27.665 0.395344 28.2864 0.642732 28.8121C0.89012 29.3379 1.41892 29.6735 2 29.6735L2 28.1735ZM5.3788 24.09L6.53448 25.0462C6.75703 24.7773 6.8788 24.4391 6.8788 24.09H5.3788ZM13.8265 3.28394C8.33256 3.28394 3.8788 7.73769 3.8788 13.2317H6.8788C6.8788 9.39455 9.98941 6.28394 13.8265 6.28394V3.28394ZM23.7743 13.2317C23.7743 7.7377 19.3205 3.28394 13.8265 3.28394V6.28394C17.6637 6.28394 20.7743 9.39455 20.7743 13.2317H23.7743ZM23.7743 24.0896V13.2317H20.7743V24.0896H23.7743ZM22.2743 25.5896H22.2746V22.5896H22.2743V25.5896ZM21.1189 25.0459L24.498 29.1298L26.8094 27.2173L23.4303 23.1334L21.1189 25.0459ZM25.6537 26.6735H2V29.6735H25.6537V26.6735ZM3.15569 29.1298L6.53448 25.0462L4.22311 23.1337L0.844313 27.2173L3.15569 29.1298ZM3.8788 13.2317V24.09H6.8788V13.2317H3.8788Z" fill="#5570FF"/>
<path fill-rule="evenodd" clip-rule="evenodd" d="M12.1371 30.0299V31.1228C12.1371 32.1595 12.9776 33 14.0144 33C15.0512 33 15.8916 32.1595 15.8916 31.1228V30.0299H12.1371Z" fill="#5570FF"/>
<path fill-rule="evenodd" clip-rule="evenodd" d="M14.0143 0.699951C13.1848 0.699951 12.5125 1.37234 12.5125 2.20178V5.15517H15.5161V2.20177C15.5161 1.37234 14.8437 0.699951 14.0143 0.699951Z" fill="#5570FF"/>
</svg>
