<svg width="157" height="191" viewBox="0 0 157 191" fill="none" xmlns="http://www.w3.org/2000/svg">
<path d="M38 182.081V126H118V182.081C112.905 190.672 106.325 185.66 103.672 182.081L82.9751 163.387C78.5174 158.933 73.4229 161.531 71.4328 163.387L51.5323 182.081C44.5274 190.99 39.592 185.793 38 182.081Z" fill="#5570FF" fill-opacity="0.44"/>
<path d="M103.895 129.567V184.121C109.671 195.995 116.531 189.51 117.708 184.121V129.567H103.895Z" fill="#6F9CD6" fill-opacity="0.28"/>
<path d="M52.9497 129.567H37.7065V183.72C42.8411 195.914 48.26 189.51 52.9497 182.447V129.567Z" fill="#6F9CD6" fill-opacity="0.28"/>
<path d="M57.3913 18.168L77.5488 1.54686C78.6424 0.645111 80.2179 0.631822 81.3266 1.51499L102.271 18.1998C102.803 18.623 103.462 18.8534 104.141 18.8534H130.979C132.636 18.8534 133.979 20.1965 133.979 21.8533V50.0706C133.979 50.8852 134.31 51.6647 134.897 52.2301L154.3 70.9406C155.486 72.0842 155.528 73.9704 154.394 75.1654L134.803 95.8054C134.274 96.3628 133.979 97.1021 133.979 97.8706V126.166C133.979 127.822 132.636 129.166 130.979 129.166H101.576C100.751 129.166 99.9627 129.505 99.396 130.104L81.5069 149.026C80.3604 150.238 78.4447 150.282 77.2438 149.124L57.4318 130.007C56.8726 129.467 56.1258 129.166 55.3487 129.166H26.2658C24.609 129.166 23.2658 127.822 23.2658 126.166V97.9012C23.2658 97.1145 22.9568 96.3592 22.4052 95.7981L2.16101 75.2049C0.977125 74.0006 1.02014 72.0568 2.25613 70.9061L22.3101 52.2351C22.9196 51.6676 23.2658 50.8723 23.2658 50.0395V21.8534C23.2658 20.1965 24.609 18.8534 26.2658 18.8534H55.4827C56.1792 18.8534 56.8539 18.611 57.3913 18.168Z" fill="#C5CEFB"/>
<circle cx="78.2218" cy="73.6081" r="38.7095" fill="white"/>
</svg>
