<svg width="72" height="69" viewBox="0 0 72 69" fill="none" xmlns="http://www.w3.org/2000/svg">
<g clip-path="url(#clip0)">
<circle cx="35.8545" cy="34.5" r="34.5" fill="#FFB946"/>
<path d="M4.03425 32.2489C4.4134 32.2489 4.72817 32.5341 4.74963 32.9028L5.00002 37.2367L9.22792 35.8524C9.44254 35.7828 9.67145 35.8176 9.85745 35.9358C10.0435 36.0541 10.1579 36.2559 10.1722 36.4715L10.4226 40.8054L14.6577 39.428C15.0297 39.3028 15.4374 39.5046 15.5662 39.8663C15.695 40.228 15.4875 40.6246 15.1155 40.7498L9.99338 42.4194C9.77876 42.4889 9.54985 42.4541 9.36385 42.3359C9.17785 42.2107 9.06339 42.0159 9.04908 41.8002L8.79869 37.4663L4.57078 38.8506C4.35617 38.9202 4.12726 38.8854 3.94126 38.7672C3.75526 38.6489 3.6408 38.4472 3.62649 38.2315L3.32603 32.9863C3.30457 32.6037 3.60503 32.2767 3.99849 32.2558C4.0128 32.2489 4.0271 32.2489 4.03425 32.2489Z" fill="#FBE4BF"/>
<path d="M14.7773 48.6105C14.9639 48.6105 15.1302 48.7367 15.1708 48.9181L15.8805 51.9866C15.9089 52.1049 15.8765 52.2311 15.7954 52.3257C15.7142 52.4204 15.5926 52.4677 15.4668 52.4677L12.7656 52.3494L13.3618 54.913C13.3902 55.0313 13.3578 55.1576 13.2767 55.2522C13.1955 55.3469 13.0698 55.3981 12.9481 55.3942L9.71562 55.2483C9.49255 55.2364 9.31815 55.055 9.33031 54.8341C9.34248 54.6172 9.54122 54.4476 9.75618 54.4595L12.4574 54.5817L11.8612 52.0181C11.8328 51.8998 11.8652 51.7736 11.9463 51.6789C12.0275 51.5843 12.1451 51.533 12.2749 51.5369L14.9761 51.6553L14.3839 49.0877C14.3352 48.8747 14.4731 48.6657 14.6922 48.6144C14.7206 48.6144 14.7489 48.6105 14.7773 48.6105Z" fill="#FBE4BF"/>
<path d="M-2.80467 47.908C-2.64729 47.908 -2.4899 47.9567 -2.35398 48.0611L0.63631 50.4124C0.808002 50.5515 0.908163 50.7532 0.901009 50.9759C0.893855 51.1915 0.786545 51.3932 0.6077 51.5185L-1.75306 53.1741L0.507547 54.948C0.679238 55.0872 0.779388 55.2889 0.772234 55.5115C0.76508 55.7272 0.657774 55.9289 0.471775 56.0541L-2.64729 58.2385C-2.96921 58.4611 -3.41274 58.3915 -3.64882 58.0785C-3.87774 57.7654 -3.8062 57.3341 -3.48428 57.1046L-1.13067 55.4559L-3.39128 53.682C-3.56297 53.5428 -3.66313 53.3411 -3.65598 53.1185C-3.64882 52.9028 -3.54151 52.7011 -3.36267 52.5759L-1.00191 50.9202L-3.26251 49.1463C-3.57013 48.9028 -3.6202 48.4645 -3.36982 48.1654C-3.21959 47.9984 -3.01213 47.908 -2.80467 47.908Z" fill="#FBE4BF"/>
<path d="M59.4761 13.9112C59.5432 13.9112 59.6103 13.9221 59.6718 13.9438L64.558 15.7379C64.8487 15.8411 64.994 16.1565 64.8822 16.4392C64.776 16.7218 64.4517 16.8632 64.161 16.7545L59.9625 15.216L59.5488 19.5651C59.532 19.7336 59.437 19.8859 59.286 19.9728C59.1407 20.0653 58.9562 20.0816 58.7941 20.0218L54.5899 18.4832L54.1707 22.8324C54.1427 23.1314 53.8744 23.3489 53.5613 23.3217C53.2538 23.2945 53.0302 23.0281 53.0581 22.7291L53.5445 17.6678C53.5613 17.4993 53.6563 17.347 53.8073 17.2601C53.9526 17.1676 54.1371 17.1513 54.2992 17.2111L58.5034 18.7496L58.9171 14.4005C58.9338 14.232 59.0289 14.0797 59.1798 13.9873C59.2693 13.9384 59.3755 13.9112 59.4761 13.9112Z" fill="#FBE4BF"/>
<path d="M31.913 28.221C31.9488 28.221 31.9774 28.221 32.0132 28.228L34.3596 28.6314C34.5098 28.6593 34.6386 28.7358 34.7244 28.861C34.8103 28.9793 34.8461 29.1254 34.8174 29.2714L34.4025 31.5532C34.3453 31.8523 34.0591 32.0471 33.7515 31.9984C33.4439 31.9428 33.2365 31.6575 33.2937 31.3654L33.6085 29.6262L31.82 29.3201C31.5124 29.2645 31.3049 28.9793 31.3622 28.6871C31.4051 28.4019 31.6412 28.221 31.913 28.221Z" fill="#FBE4BF"/>
<path d="M36.5628 53.0628C36.6916 53.0628 36.8132 53.1046 36.9205 53.1881C37.1637 53.3828 37.1924 53.7307 36.9992 53.9602L35.8403 55.3307C35.7473 55.442 35.6042 55.5116 35.4611 55.5255C35.3109 55.5394 35.1607 55.4976 35.0462 55.4002L33.6369 54.2733C33.3937 54.0785 33.3651 53.7307 33.5582 53.5011C33.7585 53.2646 34.1162 53.2368 34.3523 53.4246L35.3252 54.2037L36.1264 53.2576C36.2337 53.1324 36.3983 53.0628 36.5628 53.0628Z" fill="#FBE4BF"/>
<path d="M31.7544 16.6591C31.7615 16.6591 31.7758 16.6591 31.783 16.6591C32.0978 16.673 32.3338 16.9304 32.3195 17.2365L32.2766 18.0852L33.1494 18.1269C33.4641 18.1409 33.7002 18.3983 33.6859 18.7043C33.6716 19.0104 33.3998 19.24 33.0921 19.2261L31.6542 19.1496C31.3395 19.1356 31.1034 18.8783 31.1177 18.5722L31.1964 17.1739C31.2035 16.8887 31.4539 16.6591 31.7544 16.6591Z" fill="#FBE4BF"/>
<path d="M37.9363 63.4837C38.3337 63.4837 38.6971 63.7488 38.7993 64.1463L39.776 67.9121C39.9009 68.3759 39.6057 68.8507 39.1287 68.9722C38.6404 69.0937 38.1634 68.8066 38.0385 68.3428L37.2776 65.4273L34.2795 66.1672C33.8025 66.2887 33.3142 66.0016 33.1893 65.5378C33.0644 65.074 33.3596 64.5991 33.8366 64.4776L37.7091 63.5279C37.7886 63.4948 37.8568 63.4837 37.9363 63.4837Z" fill="#FBE4BF"/>
<path d="M34.3734 -4.85906C34.4378 -4.85906 34.5094 -4.84515 34.5738 -4.82428C34.8671 -4.71298 35.0101 -4.39993 34.8957 -4.11471L32.2917 2.4314L39.0234 4.96359C39.3167 5.07489 39.4598 5.38794 39.3453 5.67316C39.2309 5.95838 38.9018 6.09751 38.6157 5.9862L31.3617 3.25228C31.0684 3.14097 30.9253 2.82793 31.0398 2.54271L33.8512 -4.51124C33.9299 -4.72689 34.1445 -4.85906 34.3734 -4.85906Z" fill="#FBE4BF"/>
<path d="M23.3786 22.113C23.4287 22.113 23.4788 22.12 23.536 22.1339C23.8365 22.2174 24.0082 22.5234 23.9223 22.8156L23.6862 23.6295L24.5232 23.8591C24.8237 23.9426 24.9954 24.2487 24.9095 24.5339C24.8237 24.8261 24.5161 24.993 24.2156 24.9095L22.8349 24.5269C22.6919 24.4852 22.5703 24.3948 22.4987 24.2695C22.4272 24.1443 22.4057 23.9913 22.4486 23.8521L22.8421 22.5095C22.9065 22.273 23.1282 22.113 23.3786 22.113Z" fill="#FBE4BF"/>
<path d="M53.3029 13.2713C53.4317 13.2713 53.5533 13.313 53.6534 13.3896L57.03 15.9983C57.2733 16.1861 57.3162 16.5339 57.123 16.7705C56.9299 17.007 56.5722 17.0487 56.329 16.8609L53.3959 14.5931L51.0638 17.4453C50.8706 17.6818 50.5129 17.7235 50.2697 17.5357C50.0265 17.3479 49.9835 17 50.1767 16.7635L52.8594 13.48C52.9524 13.3687 53.0883 13.2922 53.2385 13.2783C53.26 13.2713 53.2814 13.2713 53.3029 13.2713Z" fill="#FBE4BF"/>
<path d="M23.7713 58.8436C23.9359 58.8436 24.0933 58.9132 24.2077 59.0384L25.338 60.3462C25.5383 60.5758 25.5097 60.9236 25.2665 61.1184L23.9216 62.2175C23.6855 62.4123 23.3278 62.3845 23.1275 62.148C22.9272 61.9184 22.9558 61.5706 23.199 61.3758L24.1147 60.6315L23.3493 59.741C23.149 59.5114 23.1776 59.1636 23.4208 58.9688C23.521 58.8854 23.6497 58.8436 23.7713 58.8436Z" fill="#FBE4BF"/>
<path d="M24.2724 32.9234C24.3654 32.9234 24.4584 32.9443 24.5443 32.993L27.9423 34.7878C28.2142 34.9339 28.3143 35.2678 28.1713 35.5322C28.021 35.7965 27.6776 35.8939 27.4058 35.7548L24.5014 34.2174L22.9204 37.0417C22.7701 37.3061 22.4267 37.4104 22.1549 37.2643C21.8831 37.1182 21.7829 36.7843 21.926 36.52L23.7717 33.2156C23.879 33.0278 24.0721 32.9234 24.2724 32.9234Z" fill="#FBE4BF"/>
<path d="M40.2825 22.0297C40.3397 22.0297 40.3969 22.0366 40.4613 22.0575L46.9641 24.1236C47.1072 24.1723 47.2217 24.2697 47.2932 24.3949C47.3576 24.5271 47.3719 24.6732 47.329 24.8123L45.2043 31.1358C45.1041 31.421 44.7894 31.581 44.4889 31.4906C44.1956 31.3932 44.0311 31.0871 44.1241 30.7949L46.0699 24.9932L40.1036 23.101C39.8103 23.0036 39.6458 22.6975 39.7388 22.4053C39.8246 22.1758 40.0464 22.0297 40.2825 22.0297Z" fill="#FBE4BF"/>
<path d="M46.6072 55.3724C46.7002 55.3724 46.7932 55.3932 46.8719 55.435L52.4304 58.3219C52.7022 58.468 52.8095 58.795 52.6593 59.0663C52.5162 59.3306 52.1728 59.435 51.8938 59.2889L46.8361 56.6593L44.132 61.5776C43.9889 61.842 43.6455 61.9463 43.3665 61.8002C43.0947 61.6541 42.9873 61.3272 43.1376 61.0559L46.1064 55.6506C46.1779 55.5254 46.2996 55.428 46.4426 55.3863C46.4927 55.3793 46.5499 55.3724 46.6072 55.3724Z" fill="#FBE4BF"/>
<path d="M23.7577 10.913C23.9866 10.913 24.2084 11.0522 24.2871 11.2817L24.8022 12.6939C24.9095 12.9791 24.7521 13.2922 24.4588 13.3965L23.0065 13.8974C22.7132 13.9948 22.3913 13.8487 22.284 13.5635C22.1767 13.2782 22.3341 12.9652 22.6274 12.8609L23.5502 12.5409L23.2212 11.6435C23.1139 11.3582 23.2712 11.0452 23.5645 10.9408C23.6289 10.92 23.6933 10.913 23.7577 10.913Z" fill="#FBE4BF"/>
<path d="M39.3025 9.22963C39.5743 9.22963 39.8176 9.42441 39.8605 9.68876L40.4256 13.0418L43.8738 12.4992C44.1814 12.4505 44.4747 12.6523 44.5248 12.9514C44.5748 13.2505 44.3674 13.5357 44.0598 13.5844L40.0536 14.2175C39.746 14.2662 39.4527 14.0644 39.4026 13.7653L38.7516 9.86964C38.7016 9.5705 38.909 9.28528 39.2166 9.23659C39.2381 9.22963 39.2739 9.22963 39.3025 9.22963Z" fill="#FBE4BF"/>
<path d="M44.0166 35.1287C44.1239 35.1287 44.2312 35.1566 44.3242 35.2192C44.5817 35.3861 44.6532 35.727 44.4815 35.9774L40.1606 42.3357L46.6992 46.5375C46.9568 46.7044 47.0283 47.0453 46.8566 47.2957C46.6849 47.5462 46.3344 47.6158 46.0768 47.4488L39.0661 42.9409C38.8086 42.774 38.737 42.4331 38.9087 42.1827L43.5444 35.3653C43.6517 35.2192 43.8306 35.1287 44.0166 35.1287Z" fill="#FBE4BF"/>
<path d="M31.7486 40.7984C31.8201 40.7984 31.8988 40.8123 31.9704 40.8401C32.2565 40.9584 32.3924 41.2784 32.2708 41.5566L29.1232 48.7984C29.0659 48.9306 28.9515 49.0419 28.8155 49.0906C28.6796 49.1462 28.5222 49.1462 28.3863 49.0906L20.9392 46.0297C20.653 45.9114 20.5171 45.5914 20.6387 45.3132C20.7603 45.0349 21.0894 44.9027 21.3756 45.021L28.3005 47.8662L31.2264 41.1323C31.3194 40.9236 31.5268 40.7984 31.7486 40.7984Z" fill="#FBE4BF"/>
<path d="M15.816 16.5965C15.8875 16.5965 15.9662 16.6104 16.0378 16.6382C16.3239 16.7565 16.4598 17.0765 16.3382 17.3547L13.1905 24.5965C13.1333 24.7287 13.0188 24.84 12.8829 24.8887C12.747 24.9443 12.5896 24.9443 12.4537 24.8887L5.00657 21.8278C4.72042 21.7095 4.58449 21.3895 4.70611 21.1113C4.82772 20.833 5.1568 20.7008 5.44295 20.8191L12.3678 23.6643L15.2938 16.9304C15.3868 16.7286 15.5942 16.5965 15.816 16.5965Z" fill="#FBE4BF"/>
<path d="M51.2783 33.8139C51.4071 33.8139 51.5359 33.8557 51.6432 33.9391L57.6166 38.8087C57.7311 38.8992 57.8026 39.0383 57.8169 39.1844C57.8312 39.3305 57.7812 39.4766 57.6882 39.5879L52.6805 45.3966C52.4802 45.6261 52.1225 45.6609 51.8864 45.4661C51.6503 45.2714 51.6146 44.9235 51.8149 44.694L56.4649 39.3026L50.9206 34.7809C50.6846 34.5861 50.6488 34.2383 50.8491 34.0087C50.9564 33.8765 51.1138 33.8139 51.2783 33.8139Z" fill="#FBE4BF"/>
<path d="M66.8934 35.9578C67.108 35.9578 67.3226 35.9787 67.5372 36.0274C68.2955 36.1943 68.9322 36.6326 69.3471 37.2726C69.5546 37.5995 69.4616 38.0239 69.1253 38.2326C68.7891 38.4343 68.3527 38.3369 68.1381 38.0169C67.9307 37.6969 67.6016 37.4674 67.2224 37.3839C66.8433 37.3004 66.4498 37.363 66.1136 37.5717C65.4268 37.9891 65.2265 38.8726 65.6557 39.5404C65.8632 39.8674 65.7631 40.2917 65.434 40.5004C65.0977 40.7021 64.6542 40.6048 64.4467 40.2848C64.0318 39.6448 63.9031 38.8934 64.0748 38.1561C64.2464 37.4187 64.6971 36.7995 65.3553 36.396C65.8203 36.1108 66.3497 35.9578 66.8934 35.9578Z" fill="#FBE4BF"/>
<path d="M60.9212 27.3374C61.4506 27.3374 61.98 27.5322 62.3806 27.9218C62.6596 28.1931 62.6596 28.6313 62.3806 28.9026C62.1016 29.1739 61.6509 29.1739 61.3719 28.9026C61.1215 28.6591 60.7138 28.6591 60.4634 28.9026C60.3418 29.0209 60.2774 29.1739 60.2774 29.3409C60.2774 29.5078 60.3418 29.6609 60.4634 29.7791C60.7424 30.0505 60.7424 30.4887 60.4634 30.76C60.1844 31.0313 59.7337 31.0313 59.4547 30.76C59.0612 30.3774 58.8466 29.8765 58.8466 29.3339C58.8466 28.7983 59.0612 28.2905 59.4547 27.9078C59.8625 27.5391 60.3918 27.3374 60.9212 27.3374Z" fill="#FBE4BF"/>
<path d="M60.8719 43.8662C61.0865 43.8662 61.3011 43.8871 61.5157 43.9358C62.274 44.1027 62.9107 44.541 63.3256 45.181C63.5331 45.508 63.4401 45.9323 63.1039 46.141C62.7676 46.3428 62.3313 46.2454 62.1166 45.9254C61.9092 45.6054 61.5801 45.3758 61.201 45.2923C60.8218 45.2088 60.4283 45.2714 60.0921 45.4801C59.4053 45.8975 59.205 46.781 59.6343 47.4488C59.8417 47.7758 59.7416 48.2002 59.4125 48.4089C59.0763 48.6106 58.6327 48.5132 58.4253 48.1932C58.0104 47.5532 57.8816 46.8019 58.0533 46.0645C58.225 45.3271 58.6757 44.708 59.3338 44.3045C59.806 44.0123 60.3353 43.8662 60.8719 43.8662Z" fill="#FBE4BF"/>
<path d="M22.1766 4.85919C22.2767 4.85919 22.3769 4.88006 22.4699 4.9218C22.8276 5.0818 22.9921 5.49223 22.8276 5.84006L20.3667 11.1688C20.2021 11.5166 19.7801 11.6766 19.4224 11.5166C19.0647 11.3566 18.9002 10.9462 19.0647 10.5983L21.5256 5.26963C21.6472 5.01223 21.9047 4.85919 22.1766 4.85919Z" fill="#FBE4BF"/>
<path d="M-0.680128 6.46782C-0.529897 6.46782 -0.379667 6.51652 -0.243745 6.60695C0.0710232 6.83652 0.128255 7.27478 -0.10782 7.58087L-2.75473 10.9618C-2.99081 11.2678 -3.4415 11.3235 -3.75627 11.0939C-4.07104 10.8644 -4.12826 10.4261 -3.89218 10.12L-1.24527 6.73913C-1.10935 6.55826 -0.894742 6.46782 -0.680128 6.46782Z" fill="#FBE4BF"/>
</g>
<defs>
<clipPath id="clip0">
<rect width="72" height="69" fill="white"/>
</clipPath>
</defs>
</svg>
