<svg width="55" height="69" viewBox="0 0 55 69" fill="none" xmlns="http://www.w3.org/2000/svg">
<g filter="url(#filter0_d)">
<path d="M14.1523 59.0173V38.3031H39.6877V59.0173C38.0616 62.1906 35.9612 60.3395 35.1142 59.0173L28.5081 52.1126C27.0852 50.4672 25.4591 51.427 24.8239 52.1126L18.4718 59.0173C16.2358 62.3081 14.6605 60.3885 14.1523 59.0173Z" fill="#F8C879"/>
<path d="M35.281 41.3352V58.7395C37.1238 62.5275 39.3124 60.4587 39.6879 58.7395V41.3352H35.281Z" fill="#FA9B00"/>
<path d="M19.0283 41.3352H14.1653V58.6116C15.8033 62.5019 17.5321 60.4587 19.0283 58.2056V41.3352Z" fill="#FA9B00"/>
<path d="M21.5653 4.87243L24.3478 2.57809C26.1705 1.07519 28.7963 1.05304 30.6441 2.52499L33.6575 4.92554C34.5428 5.63074 35.6411 6.01473 36.7729 6.01473H39.8787C42.6402 6.01473 44.8787 8.25331 44.8787 11.0147V14.256C44.8787 15.6136 45.4308 16.9129 46.4081 17.8553L48.4743 19.8477C50.451 21.7538 50.5206 24.8974 48.6302 26.8891L46.2522 29.3945C45.3704 30.3235 44.8787 31.5556 44.8787 32.8366V36.2073C44.8787 38.9688 42.6402 41.2073 39.8787 41.2073H36.2827C34.9079 41.2073 33.5939 41.7733 32.6494 42.7723L30.9446 44.5755C29.0338 46.5965 25.841 46.6698 23.8395 44.7385L21.6328 42.6092C20.7008 41.7099 19.4562 41.2073 18.161 41.2073H14.5582C11.7968 41.2073 9.55818 38.9688 9.55818 36.2073V32.8876C9.55818 31.5763 9.04306 30.3175 8.1238 29.3824L5.73742 26.9549C3.76428 24.9477 3.83596 21.7081 5.89595 19.7902L7.96527 17.8636C8.98118 16.9178 9.55818 15.5922 9.55818 14.2041V11.0147C9.55818 8.25331 11.7968 6.01473 14.5582 6.01473H18.3844C19.5451 6.01473 20.6697 5.61088 21.5653 4.87243Z" fill="#FCA20F"/>
<circle cx="27.0909" cy="23.4829" r="12.3494" fill="white"/>
<path d="M24.8918 19.7369L26.3644 17.493C26.7936 16.8389 27.7738 16.9088 28.1059 17.6172L29.044 19.6185C29.183 19.915 29.4583 20.1247 29.7812 20.1798L32.6066 20.6622C33.4065 20.7988 33.7192 21.7812 33.1454 22.355L31.1474 24.353C30.9292 24.5712 30.8239 24.878 30.8622 25.1842L31.1881 27.7912C31.2912 28.6165 30.4004 29.1997 29.6853 28.7751L27.81 27.6616C27.5205 27.4898 27.1641 27.4751 26.8615 27.6225L24.0642 28.9853C23.3404 29.3379 22.5179 28.7342 22.6373 27.9379L23.0551 25.1526C23.0983 24.8646 23.0138 24.572 22.8236 24.3513L21.0559 22.3009C20.553 21.7175 20.8707 20.8085 21.6274 20.6654L24.2416 20.1708C24.5082 20.1203 24.7429 19.9637 24.8918 19.7369Z" fill="#FF9F00"/>
</g>
<defs>
<filter id="filter0_d" x="0.302979" y="1.43579" width="53.7006" height="67.4373" filterUnits="userSpaceOnUse" color-interpolation-filters="sRGB">
<feFlood flood-opacity="0" result="BackgroundImageFix"/>
<feColorMatrix in="SourceAlpha" type="matrix" values="0 0 0 0 0 0 0 0 0 0 0 0 0 0 0 0 0 0 127 0"/>
<feOffset dy="4"/>
<feGaussianBlur stdDeviation="2"/>
<feColorMatrix type="matrix" values="0 0 0 0 0.988235 0 0 0 0 0.635294 0 0 0 0 0.0588235 0 0 0 0.35 0"/>
<feBlend mode="normal" in2="BackgroundImageFix" result="effect1_dropShadow"/>
<feBlend mode="normal" in="SourceGraphic" in2="effect1_dropShadow" result="shape"/>
</filter>
</defs>
</svg>
