<svg width="107" height="136" viewBox="0 0 107 136" fill="none" xmlns="http://www.w3.org/2000/svg">
<g filter="url(#filter0_d)">
<path d="M26.2292 123.939V80.4473H79.8431V123.939C76.4289 130.601 72.0189 126.715 70.2406 123.939L56.3704 109.442C53.3829 105.987 49.9687 108.002 48.635 109.442L35.2983 123.939C30.6037 130.848 27.2962 126.818 26.2292 123.939Z" fill="#F8C879"/>
<path d="M70.5911 86.8136V123.356C74.4602 131.309 79.0552 126.965 79.8437 123.356V86.8136H70.5911Z" fill="#FA9B00"/>
<path d="M36.4666 86.8136H26.2563V123.087C29.6956 131.255 33.3254 126.965 36.4666 122.234V86.8136Z" fill="#FA9B00"/>
<path d="M41.102 10.8272L49.1982 4.15132C52.1145 1.74666 56.3159 1.71123 59.2723 4.06635L67.8659 10.9121C69.2823 12.0405 71.0396 12.6548 72.8505 12.6548H82.7428C87.1611 12.6548 90.7428 16.2366 90.7428 20.6548V31.0196C90.7428 33.1918 91.6261 35.2706 93.1897 36.7783L100.076 43.4187C103.239 46.4685 103.35 51.4982 100.325 54.6849L92.9403 62.4656C91.5294 63.9521 90.7428 65.9235 90.7428 67.973V78.5449C90.7428 82.9631 87.1611 86.5449 82.7428 86.5449H71.6186C69.419 86.5449 67.3165 87.4505 65.8054 89.0488L59.7531 95.4502C56.6958 98.6839 51.5874 98.8011 48.385 95.7111L41.21 88.7879C39.7188 87.349 37.7274 86.5449 35.6551 86.5449H24.5841C20.1658 86.5449 16.5841 82.9631 16.5841 78.5449V68.0546C16.5841 65.9566 15.7599 63.9425 14.2891 62.4463L6.76268 54.7902C3.60567 51.5787 3.72036 46.3954 7.01633 43.3267L14.0354 36.7917C15.6609 35.2783 16.5841 33.1574 16.5841 30.9365V20.6548C16.5841 16.2366 20.1658 12.6548 24.5841 12.6548H36.0125C37.8697 12.6548 39.6691 12.0087 41.102 10.8272Z" fill="#FCA20F"/>
<circle cx="53.395" cy="49.331" r="25.9287" fill="white"/>
<path d="M48.5217 41.8559L52.9493 35.109C53.3786 34.455 54.3588 34.5249 54.6908 35.2333L57.7397 41.7376C57.8787 42.0341 58.1541 42.2438 58.4769 42.2989L67.0717 43.7663C67.8717 43.9029 68.1844 44.8853 67.6105 45.4591L61.5317 51.5379C61.3135 51.7562 61.2083 52.0629 61.2466 52.3691L62.276 60.6048C62.3792 61.4301 61.4884 62.0133 60.7732 61.5887L54.3949 57.8016C54.1055 57.6298 53.749 57.6151 53.4464 57.7625L45.1612 61.7989C44.4374 62.1515 43.6148 61.5478 43.7343 60.7516L44.9964 52.3375C45.0396 52.0495 44.955 51.7569 44.7649 51.5363L39.4792 45.405C38.9764 44.8216 39.294 43.9126 40.0508 43.7694L47.8715 42.2898C48.1382 42.2394 48.3728 42.0828 48.5217 41.8559Z" fill="#FF9F00"/>
</g>
<defs>
<filter id="filter0_d" x="0.467773" y="2.32361" width="106.055" height="133.512" filterUnits="userSpaceOnUse" color-interpolation-filters="sRGB">
<feFlood flood-opacity="0" result="BackgroundImageFix"/>
<feColorMatrix in="SourceAlpha" type="matrix" values="0 0 0 0 0 0 0 0 0 0 0 0 0 0 0 0 0 0 127 0"/>
<feOffset dy="4"/>
<feGaussianBlur stdDeviation="2"/>
<feColorMatrix type="matrix" values="0 0 0 0 1 0 0 0 0 0.621622 0 0 0 0 0 0 0 0 0.65 0"/>
<feBlend mode="normal" in2="BackgroundImageFix" result="effect1_dropShadow"/>
<feBlend mode="normal" in="SourceGraphic" in2="effect1_dropShadow" result="shape"/>
</filter>
</defs>
</svg>
